<svg xmlns="http://www.w3.org/2000/svg" version="1.1" xmlns:xlink="http://www.w3.org/1999/xlink" xmlns:svgjs="http://svgjs.dev/svgjs" width="1500" height="1500" viewBox="0 0 1500 1500"><rect width="1500" height="1500" fill="#000000"></rect><g transform="matrix(0.6666666666666666,0,0,0.6666666666666666,249.39393939393938,617.4144429927154)"><svg viewBox="0 0 396 105" data-background-color="#ffffff" preserveAspectRatio="xMidYMid meet" height="397" width="1500" xmlns="http://www.w3.org/2000/svg" xmlns:xlink="http://www.w3.org/1999/xlink"><g id="tight-bounds" transform="matrix(1,0,0,1,0.2400000000000091,0.10006354822999697)"><svg viewBox="0 0 395.52 104.79987290354" height="104.79987290354" width="395.52"><g><svg viewBox="0 0 573.4081636364136 151.93442220607915" height="104.79987290354" width="395.52"><g transform="matrix(1,0,0,1,177.88816363641368,20.998172678264204)"><svg viewBox="0 0 395.52 109.93807684955074" height="109.93807684955074" width="395.52"><g id="textblocktransform"><svg viewBox="0 0 395.52 109.93807684955074" height="109.93807684955074" width="395.52" id="textblock"><g><svg viewBox="0 0 395.52 109.93807684955074" height="109.93807684955074" width="395.52"><g transform="matrix(1,0,0,1,0,0)"><svg width="395.52" viewBox="7.08 -35.01 127.7 35.5" height="109.93807684955074" data-palette-color="#6b7280"><path d="M27.42 0L7.08 0 7.08-34.69 27.42-34.69 27.42-31.03 11.23-31.03 11.23-19.7 26.07-19.7 26.07-16.04 11.23-16.04 11.23-3.66 27.42-3.66 27.42 0ZM38.4 0L38.4-34.69 42.55-34.69 42.55-3.64 58.13-3.64 58.13 0 38.4 0ZM66.06 0L66.06-34.69 71.92-34.69 83.05-13.65 94.36-34.69 99.85-34.69 99.85 0 95.7 0 95.7-28.74 85.03-9.94 80.88-9.94 70.21-28.74 70.21 0 66.06 0ZM125.02-35.01L125.02-35.01Q129.02-35.01 133.64-33.62L133.64-33.62 132.29-29.83Q127.9-31.1 124.68-31.1L124.68-31.1Q121.06-31.1 118.56-29.58 116.06-28.05 116.06-25.63L116.06-25.63Q116.06-24.29 116.86-23.24 117.67-22.19 118.99-21.53 120.31-20.87 121.99-20.23 123.67-19.58 125.42-19.04 127.17-18.51 128.85-17.68 130.53-16.85 131.85-15.86 133.17-14.87 133.98-13.28 134.78-11.69 134.78-9.69L134.78-9.69Q134.78-8.3 134.34-6.92 133.9-5.54 132.88-4.19 131.85-2.83 130.34-1.81 128.83-0.78 126.52-0.15 124.21 0.49 121.38 0.49 118.55 0.49 116.17-0.1 113.79-0.68 110.83-1.86L110.83-1.86 112.25-5.88Q118.35-3.61 121.89-3.61L121.89-3.61Q125.6-3.61 127.93-5.1 130.27-6.59 130.27-9.08L130.27-9.08Q130.27-10.74 129.23-11.95 128.19-13.16 126.54-13.9 124.89-14.65 122.89-15.3 120.89-15.94 118.9-16.69 116.91-17.43 115.26-18.41 113.62-19.38 112.58-21.04 111.54-22.71 111.54-24.95L111.54-24.95Q111.54-26.95 112.5-28.78 113.47-30.62 115.18-31.99 116.89-33.37 119.45-34.19 122.01-35.01 125.02-35.01Z" opacity="1" transform="matrix(1,0,0,1,0,0)" fill="#ffffff" class="wordmark-text-0" data-fill-palette-color="primary" id="text-0"></path></svg></g></svg></g></svg></g></svg></g><g><svg viewBox="0 0 151.93442220607915 151.93442220607915" height="151.93442220607915" width="151.93442220607915"><g><svg></svg></g><g id="icon-0"><svg viewBox="0 0 151.93442220607915 151.93442220607915" height="151.93442220607915" width="151.93442220607915"><g><path transform="scale(1.51934,1.51934)" d="M30 100c-16.569 0-30-13.431-30-30v-40c0-16.569 13.431-30 30-30h40c16.569 0 30 13.431 30 30v40c0 16.569-13.431 30-30 30z" fill="#ffffff" fill-rule="nonzero" stroke="none" stroke-width="1" stroke-linecap="butt" stroke-linejoin="miter" stroke-miterlimit="10" stroke-dasharray="" stroke-dashoffset="0" font-family="none" font-weight="none" font-size="none" text-anchor="none" style="mix-blend-mode: normal" data-fill-palette-color="accent"></path></g><g transform="matrix(1,0,0,1,30.386884441215834,30.386884441215834)"><svg viewBox="0 0 91.16065332364748 91.16065332364748" height="91.16065332364748" width="91.16065332364748"><g><svg xmlns="http://www.w3.org/2000/svg" xmlns:xlink="http://www.w3.org/1999/xlink" version="1.1" x="0" y="0" viewBox="2.6999999999999993 2.8000000000000007 94.5 94.5" enable-background="new 0 0 100 100" xml:space="preserve" height="91.16065332364748" width="91.16065332364748" class="icon-cg-0" data-fill-palette-color="quaternary" id="cg-0"><path d="M28.3 87.1l4.9-3.5c1.7 0.9 3.6 1.6 5.5 2.2l1 6c0.6 3.2 3.3 5.5 6.5 5.5 0 0 0 0 0.1 0l8.2-0.1c3.2 0 6-2.4 6.5-5.6l1-6c1.8-0.6 3.5-1.3 5.2-2.2l5 3.5c2.7 1.9 6.2 1.5 8.5-0.8l5.7-5.8c2.3-2.3 2.5-5.9 0.6-8.5L83.5 67c0.9-1.8 1.7-3.6 2.2-5.4l6-1.1c3.2-0.6 5.5-3.3 5.5-6.6l-0.1-8.2c0-3.2-2.4-6-5.6-6.5l-5.9-0.9c-0.6-1.9-1.4-3.7-2.3-5.4l3.5-5c1.8-2.7 1.5-6.2-0.8-8.5l-5.8-5.7c-2.3-2.3-5.9-2.5-8.5-0.7L48.4 29.6c-5 0.4-9.7 2.6-13.2 6.3-3.8 4-5.8 9.1-5.7 14.6 0.3 11.1 9.4 20 20.4 20 0.2 0 0.3 0 0.5 0 11.3-0.3 20.2-9.6 20-20.9-0.1-2.3-0.5-4.5-1.2-6.6-0.7-1.8-2.7-2.7-4.5-2.1-1.8 0.7-2.7 2.7-2.1 4.5 0.5 1.4 0.8 2.8 0.8 4.3 0.2 7.4-5.7 13.6-13.1 13.8-7.5 0.1-13.6-5.7-13.8-13.1-0.1-3.6 1.2-7 3.7-9.6 2.5-2.6 5.8-4.1 9.4-4.2 0.7 0 1.4-0.2 1.9-0.6l24.1-17.1 5.3 5.2-3.4 4.8C76.2 31 76 33.7 77.2 36c0.7 1.5 1.4 3 1.9 4.5 0.8 2.5 2.9 4.3 5.4 4.7l5.7 0.9 0.1 7.5-5.8 1c-2.5 0.4-4.5 2.2-5.3 4.7-0.5 1.5-1.1 3-1.9 4.5-1.2 2.3-1 5.1 0.5 7.2l3.4 4.6L75.9 81l-4.8-3.4C69 76.1 66.3 76 64 77.2c-1.4 0.7-2.8 1.3-4.3 1.8-2.5 0.8-4.2 2.9-4.7 5.4l-0.9 5.7-7.5 0.1-1-5.7c-0.4-2.5-2.3-4.6-4.7-5.4-1.6-0.5-3.1-1.1-4.5-1.8-2.3-1.2-5-1-7.1 0.5l-4.7 3.4L19.1 76l3.3-4.8c1.5-2.1 1.6-4.8 0.4-7.1-0.7-1.4-1.4-2.9-1.9-4.5-0.8-2.5-2.9-4.2-5.4-4.6L9.8 54l-0.1-7.5 5.8-1c2.5-0.4 4.6-2.3 5.4-4.7 0.5-1.6 1.1-3.1 1.8-4.5 1.2-2.3 1-5-0.5-7.1l-3.4-4.7 5.2-5.3 4.8 3.3c2.1 1.5 4.9 1.6 7.2 0.4 1.5-0.8 3-1.4 4.6-1.9 2.5-0.8 4.3-2.9 4.7-5.5l0.9-5.6L54 9.8c1.9 0 3.5-1.6 3.5-3.5 0-1.9-1.6-3.5-3.5-3.5 0 0 0 0 0 0l-8.2 0.1c-3.2 0-6 2.4-6.5 5.6l-0.9 5.9c-2 0.6-3.9 1.4-5.7 2.4l-5-3.5c-2.7-1.8-6.2-1.5-8.5 0.8l-5.7 5.8c-2.3 2.3-2.5 5.9-0.6 8.5l3.5 4.9c-0.9 1.7-1.6 3.6-2.2 5.5l-6 1c-3.1 0.6-5.4 3.2-5.5 6.3 0 0.1 0 0.1 0 0.2l0.1 8.2c0 3.2 2.4 6 5.6 6.5l6 1c0.6 1.9 1.4 3.7 2.3 5.4l-3.5 5c-1.8 2.7-1.5 6.2 0.8 8.5l5.8 5.7C22.1 88.7 25.6 89 28.3 87.1z" fill="#000000" data-fill-palette-color="quaternary"></path></svg></g></svg></g></svg></g></svg></g></svg></g><defs></defs></svg><rect width="395.52" height="104.79987290354" fill="none" stroke="none" visibility="hidden"></rect></g></svg></g></svg>